<svg xmlns="http://www.w3.org/2000/svg" viewBox="0 0 749.42 136.45"><defs><style>.cls-1{fill:#fff;}</style></defs><g id="Calque_2" data-name="Calque 2"><g id="Layer_1" data-name="Layer 1"><path class="cls-1" d="M76.58,56.62,52.31,50.33C47.09,48.9,39.18,46.55,39.18,37c0-7.73,6.66-13.66,17.09-13.66,17.25,0,17.08,14,17.08,18h36.49C109.65,27.5,107.5,0,56.81,0,18,0,2.15,19.59,2.15,40.63c0,27.14,23.19,33.25,32.19,35.59l31.8,8.27C74.78,86.82,77.3,91,77.3,97.07c0,14.74-16.19,14.74-19.23,14.74-21.4,0-21.76-14.92-22-20.13H0C.18,97.25.35,110,9.88,120.45,21.75,133.74,43.5,135.91,57,135.91c32.54,0,57.35-12.94,57.35-41.89C114.33,66.51,93.84,61.12,76.58,56.62Z"/><polygon class="cls-1" points="317.07 3.23 280.58 3.23 280.58 133.02 375.31 133.02 375.31 107.5 375.31 107.5 375.31 98.42 317.07 98.42 317.07 3.23"/><path class="cls-1" d="M711.67,56.62,687.4,50.33c-5.21-1.43-13.13-3.78-13.13-13.3,0-7.73,6.66-13.66,17.08-13.66,17.26,0,17.09,14,17.09,18h36.49C744.74,27.5,742.58,0,691.9,0c-38.84,0-54.66,19.59-54.66,40.63,0,27.14,23.19,33.25,32.19,35.59l31.8,8.27c8.64,2.33,11.16,6.47,11.16,12.58,0,14.74-16.19,14.74-19.24,14.74-21.4,0-21.75-14.92-21.94-20.13H635.09c.17,5.57.35,18.33,9.88,28.77,11.87,13.29,33.62,15.46,47.1,15.46,32.54,0,57.35-12.94,57.35-41.89C749.42,66.51,728.93,61.12,711.67,56.62Z"/><polygon class="cls-1" points="171.37 3.23 120.14 133.02 156.11 133.02 191.47 36.45 192 36.45 221.37 120.02 225.85 133.02 266.47 133.02 215.24 3.23 171.37 3.23"/><path class="cls-1" d="M579.1,3.23V79.09c0,13-3.06,31.47-25.89,31.47-8.81,0-17.26-3.42-22.11-10.61-3.6-5.39-4.14-12.59-4.14-19.6V3.23H346V28.94h0V38H399.1v95h36.31V38h55.15l-.09,39.08c0,21.21.18,59.33,61.48,59.33,16.36,0,39.55-3.06,52.14-18.52,8.08-9.53,10-25.17,10-39.55V3.23Z"/></g></g></svg>