<?xml version="1.0" encoding="utf-8"?>
<!-- Generator: Adobe Illustrator 25.2.0, SVG Export Plug-In . SVG Version: 6.00 Build 0)  -->
<svg version="1.1" id="Calque_1" xmlns="http://www.w3.org/2000/svg" xmlns:xlink="http://www.w3.org/1999/xlink" x="0px" y="0px"
	 viewBox="0 0 512 512" style="enable-background:new 0 0 512 512;" xml:space="preserve">
<style type="text/css">
	.st0{fill-rule:evenodd;clip-rule:evenodd;fill:#007A57;}
</style>
<path class="st0" d="M0,256v256l256.3-0.3l256.3-0.3l0.3-255.8L513,0H256.5H0V256 M0.5,256.5c0,140.8,0.1,198.3,0.3,127.7
	c0.1-70.6,0.1-185.8,0-256C0.6,58,0.5,115.7,0.5,256.5 M56,215c-12.7,1.5-21.7,8-24.6,17.7c-2.4,8.4-0.6,15.9,5.3,21.5
	c3.7,3.5,7.2,4.9,22.3,8.9c14.5,3.8,17.7,6,16.6,11.2c-1.1,5.6-3.7,7.2-11.5,7.2c-5.9,0-7.3-0.3-9.5-2.4c-1.4-1.3-2.8-3.9-3.2-5.8
	l-0.6-3.3h-11h-11l0.6,4.5c0.8,5.8,3.8,11.6,7.6,14.8c12.3,10.3,42.9,9.7,54.4-1.1c9.4-8.8,8.7-27.2-1.2-33.7
	c-3-2-18.9-7.1-30.4-9.9c-6.6-1.6-8.9-8.5-4.3-13.2c1.9-1.9,3.5-2.5,7.4-2.5c6,0,9,2.1,10,7l0.7,3.5l10.7,0.3l10.7,0.3v-4.2
	C95,221,78.9,212.3,56,215 M440,215c-10.4,1.3-17.5,5.1-22.1,11.9c-5.3,7.9-4.7,18.8,1.3,25.6c4.2,4.8,6.3,5.8,22.8,10.3
	c7.8,2.2,14.9,4.6,15.8,5.5c2.4,2.4,2,8.2-0.6,10.9c-1.9,1.9-3.3,2.2-9.3,2.2c-6.7,0-7.2-0.2-10-3.3c-1.6-1.8-2.9-4.4-2.9-5.8V270
	h-11.1h-11.1l0.6,4.5c1.8,13.4,11.8,20.8,29.9,22.1c15.6,1.1,28.9-3.5,35.1-12.3c4.1-5.8,4.9-16.1,1.7-22.6
	c-3.6-7.4-8.8-9.9-34.9-16.7c-5.4-1.4-8.2-4.1-8.2-8.1c0-4.9,3.8-8,9.8-8c6,0,9,2.1,10,7l0.7,3.5l10.7,0.3l10.7,0.3v-4.2
	C479,221,462.8,212.3,440,215 M132.6,216.8c-0.6,1-30.6,77.2-30.6,77.8c0,0.2,4.8,0.4,10.8,0.4h10.8l10.4-28.5
	c5.7-15.7,10.7-28.5,11-28.5s5.1,12.8,10.6,28.5l9.9,28.5l12.3,0c6.7,0,12.2-0.1,12.2-0.2s-6.9-17.8-15.4-39.3l-15.4-39l-13.1-0.3
	C139,216.1,132.9,216.3,132.6,216.8 M199,255.5V295h28.5H256v-10.5V274h-17.5H221l-0.3-28.8l-0.3-28.8l-10.8-0.3l-10.8-0.3V255.5
	 M238.4,217.3c-0.3,0.7-0.4,5.6-0.2,10.8l0.3,9.4l15.8,0.3l15.8,0.3v28.5V295h11h11v-28.5V238h17h17l0,17.3
	c0,12.6,0.4,18.6,1.5,22.3c4.2,13.8,17.8,20.5,39.4,19.2c12.2-0.7,19.9-3.4,25.7-9.1c6.8-6.8,7.5-11.1,7.5-43.9V216h-10.5H379
	l0,25.8c0,14.2-0.4,27.4-1,29.3c-0.5,2-2.3,4.9-4,6.4c-5.9,5.6-19.2,4.3-23.7-2.3c-1.6-2.4-1.9-5.8-2.3-30.7l-0.5-28l-54.3-0.3
	C248.7,216,238.9,216.2,238.4,217.3"/>
</svg>
